<svg version="1.1" xmlns="http://www.w3.org/2000/svg" xmlns:xlink="http://www.w3.org/1999/xlink" width="35.68979" height="56.83555" viewBox="0,0,35.68979,56.83555"><g transform="translate(-222.15511,-151.58223)"><g data-paper-data="{&quot;isPaintingLayer&quot;:true}" fill-rule="nonzero" stroke="none" stroke-linecap="butt" stroke-linejoin="miter" stroke-miterlimit="10" stroke-dasharray="" stroke-dashoffset="0" style="mix-blend-mode: normal"><path d="" fill="#ff0000" stroke-width="0.5"/><path d="" fill="#ff0000" stroke-width="0.5"/><path d="" fill="#ff0000" stroke-width="0.5"/><path d="" fill="#ff0000" stroke-width="0.5"/><path d="" fill="#ff0000" stroke-width="0.5"/><path d="" fill="#ff0000" stroke-width="0.5"/><path d="M229.88439,188.41258c0,2.13438 -1.73026,3.86464 -3.86464,3.86464c-2.13438,0 -3.86464,-1.73026 -3.86464,-3.86464c0,-2.13438 1.73026,-3.86464 3.86464,-3.86464c2.13438,0 3.86464,1.73026 3.86464,3.86464z" fill="#ffe289" stroke-width="0"/><path d="" fill="#000000" stroke-width="0.5"/><path d="M228.29176,207.96182v-28.41648h23.64251v28.41648z" fill="#ff0000" stroke-width="0"/><path d="M228.29306,208.41778v-7.95661h23.64251v7.95661z" fill="#0002ff" stroke-width="0"/><path d="M257.8449,189.77527c0,2.63659 -2.13738,4.77397 -4.77397,4.77397c-2.63659,0 -4.77397,-2.13738 -4.77397,-4.77397c0,-2.63659 2.13738,-4.77397 4.77397,-4.77397c2.63659,0 4.77397,2.13738 4.77397,4.77397z" fill="#ffe289" stroke-width="0"/><path d="M256.47961,168.17744c0,9.16529 -7.42995,16.59523 -16.59523,16.59523c-9.16529,0 -16.59522,-7.42994 -16.59522,-16.59522c0,-9.16529 7.42994,-16.59522 16.59523,-16.59522c9.16529,0 16.59523,7.42994 16.59523,16.59523z" fill="#ffe289" stroke-width="0"/></g></g></svg>