<svg version="1.1" xmlns="http://www.w3.org/2000/svg" xmlns:xlink="http://www.w3.org/1999/xlink" width="88.63484" height="155.1716" viewBox="0,0,88.63484,155.1716"><g transform="translate(-195.68258,-102.4142)"><g data-paper-data="{&quot;isPaintingLayer&quot;:true}" fill-rule="nonzero" stroke-linecap="butt" stroke-linejoin="miter" stroke-miterlimit="10" stroke-dasharray="" stroke-dashoffset="0" style="mix-blend-mode: normal"><path d="M283.06742,180c0,42.15911 -19.28193,76.3358 -43.06742,76.3358c-23.7855,0 -43.06742,-34.17669 -43.06742,-76.3358c0,-42.15911 19.28193,-76.3358 43.06742,-76.3358c23.7855,0 43.06742,34.17669 43.06742,76.3358z" fill="#ffffff" stroke="#979797" stroke-width="2.5"/><path d="M240.29587,194.13422l-8.86967,-3.98367c0,0 24.64311,-57.45322 26.11612,-56.79164c22.25337,9.99474 -17.24646,60.77531 -17.24646,60.77531z" fill="#9f9f9f" stroke="none" stroke-width="0"/><path d="M226.30246,226.64676l-10.64359,-4.7804l14.79648,-32.94447l10.64359,4.7804z" fill="#735400" stroke="none" stroke-width="0.5"/><path d="M252.54802,198.72346l-18.39646,-5.82615l-13.22934,-7.15989l14.59517,4.11887z" fill="#cb9500" stroke="none" stroke-width="0"/></g></g></svg>