<svg version="1.1" xmlns="http://www.w3.org/2000/svg" xmlns:xlink="http://www.w3.org/1999/xlink" width="35.6898" height="56.83555" viewBox="0,0,35.6898,56.83555"><g transform="translate(-222.1551,-151.58223)"><g data-paper-data="{&quot;isPaintingLayer&quot;:true}" fill-rule="nonzero" stroke="none" stroke-linecap="butt" stroke-linejoin="miter" stroke-miterlimit="10" stroke-dasharray="" stroke-dashoffset="0" style="mix-blend-mode: normal"><path d="" data-paper-data="{&quot;index&quot;:null}" fill="#ff0000" stroke-width="0.5"/><path d="" data-paper-data="{&quot;index&quot;:null}" fill="#ff0000" stroke-width="0.5"/><path d="" data-paper-data="{&quot;index&quot;:null}" fill="#ff0000" stroke-width="0.5"/><path d="" data-paper-data="{&quot;index&quot;:null}" fill="#ff0000" stroke-width="0.5"/><path d="" data-paper-data="{&quot;index&quot;:null}" fill="#ff0000" stroke-width="0.5"/><path d="" data-paper-data="{&quot;index&quot;:null}" fill="#ff0000" stroke-width="0.5"/><path d="" data-paper-data="{&quot;index&quot;:null}" fill="#000000" stroke-width="0.5"/><path d="M228.06573,207.96182v-28.41648h23.64251v28.41648z" data-paper-data="{&quot;index&quot;:null}" fill="#ff0000" stroke-width="0"/><path d="M228.06443,208.41778v-7.95661h23.64251v7.95661z" data-paper-data="{&quot;index&quot;:null}" fill="#0002ff" stroke-width="0"/><path d="M253.07093,184.54794c2.63659,0 4.77397,2.13738 4.77397,4.77397c0,2.63659 -2.13738,4.77397 -4.77397,4.77397c-2.63659,0 -4.77397,-2.13738 -4.77397,-4.77397c0,-2.63659 2.13738,-4.77397 4.77397,-4.77397z" data-paper-data="{&quot;index&quot;:null}" fill="#ffe289" stroke-width="0"/><path d="M226.92907,185.0013c2.63659,0 4.77397,2.13738 4.77397,4.77397c0,2.63659 -2.13738,4.77397 -4.77397,4.77397c-2.63659,0 -4.77397,-2.13738 -4.77397,-4.77397c0,-2.63659 2.13738,-4.77397 4.77397,-4.77397z" data-paper-data="{&quot;index&quot;:null}" fill="#ffe289" stroke-width="0"/><path d="M223.52038,168.17746c0,-9.16529 7.42994,-16.59523 16.59523,-16.59523c9.16529,0 16.59523,7.42993 16.59523,16.59522c0,9.16528 -7.42993,16.59522 -16.59522,16.59522c-9.16528,0 -16.59523,-7.42994 -16.59523,-16.59523z" data-paper-data="{&quot;index&quot;:null}" fill="#ffe289" stroke-width="0"/></g></g></svg>