<svg version="1.1" xmlns="http://www.w3.org/2000/svg" xmlns:xlink="http://www.w3.org/1999/xlink" width="492" height="379" viewBox="0,0,492,379"><defs><linearGradient x1="225.35449" y1="236" x2="225.35449" y2="260" gradientTransform="translate(-299,-508) scale(2,2)" gradientUnits="userSpaceOnUse" id="color-1"><stop offset="0" stop-color="#00ff50"/><stop offset="1" stop-color="#5cff00"/></linearGradient><linearGradient x1="221.76855" y1="297.5" x2="221.76855" y2="321.5" gradientTransform="translate(-378,-631) scale(2,2)" gradientUnits="userSpaceOnUse" id="color-2"><stop offset="0" stop-color="#ff0096"/><stop offset="1" stop-color="#ff0000"/></linearGradient><linearGradient x1="215.77053" y1="169.26656" x2="215.77053" y2="201.34112" gradientTransform="translate(-199.03625,-289.30963) scale(1.49651,1.49651)" gradientUnits="userSpaceOnUse" id="color-3"><stop offset="0" stop-color="#ff0000"/><stop offset="1" stop-color="#004aff"/></linearGradient><linearGradient x1="414.5" y1="14.56149" x2="414.5" y2="58.06149" gradientUnits="userSpaceOnUse" id="color-4"><stop offset="0" stop-color="#ffffff"/><stop offset="1" stop-color="#f5f5f5"/></linearGradient></defs><g transform="translate(3.5,11)"><g data-paper-data="{&quot;isPaintingLayer&quot;:true}" fill-rule="nonzero" stroke-linejoin="miter" stroke-miterlimit="10" stroke-dasharray="" stroke-dashoffset="0" style="mix-blend-mode: normal"><path d="M-3.5,368v-379h492v379z" fill="#ffffff" stroke="none" stroke-width="0" stroke-linecap="butt"/><text transform="translate(116.5,149.63097) scale(1.06716,1.06716)" font-size="40" xml:space="preserve" fill="#cd8b00" fill-rule="nonzero" stroke="none" stroke-width="1" stroke-linecap="butt" stroke-linejoin="miter" stroke-miterlimit="10" stroke-dasharray="" stroke-dashoffset="0" font-family="Serif" font-weight="normal" text-anchor="start" style="mix-blend-mode: normal"><tspan x="0" dy="0">Ack</tspan></text><path d="M212.5,138.5c0,15.74012 -5.37258,28.5 -12,28.5c-6.62742,0 -12,-12.75988 -12,-28.5c0,-15.74012 5.37258,-28.5 12,-28.5c6.62742,0 12,12.75988 12,28.5z" fill="#cd8b00" stroke="none" stroke-width="0" stroke-linecap="butt"/><text transform="translate(213.5,149.63097) scale(1.06716,1.06716)" font-size="40" xml:space="preserve" fill="#cccccc" fill-rule="nonzero" stroke="none" stroke-width="1" stroke-linecap="butt" stroke-linejoin="miter" stroke-miterlimit="10" stroke-dasharray="" stroke-dashoffset="0" font-family="Serif" font-weight="normal" text-anchor="start" style="mix-blend-mode: normal"><tspan x="0" dy="0">Attack</tspan></text><text transform="translate(149.5,254) scale(0.5,0.5)" font-size="40" xml:space="preserve" fill="url(#color-1)" fill-rule="nonzero" stroke="none" stroke-width="1" stroke-linecap="butt" stroke-linejoin="miter" stroke-miterlimit="10" stroke-dasharray="" stroke-dashoffset="0" font-family="Serif" font-weight="normal" text-anchor="start" style="mix-blend-mode: normal"><tspan x="0" dy="0">@Steve0Greatness</tspan></text><text transform="translate(189,315.5) scale(0.5,0.5)" font-size="40" xml:space="preserve" fill="url(#color-2)" fill-rule="nonzero" stroke="none" stroke-width="1" stroke-linecap="butt" stroke-linejoin="miter" stroke-miterlimit="10" stroke-dasharray="" stroke-dashoffset="0" font-family="Serif" font-weight="normal" text-anchor="start" style="mix-blend-mode: normal"><tspan x="0" dy="0">#Games</tspan></text><text transform="translate(133,193.32248) scale(0.66822,0.66822)" font-size="40" xml:space="preserve" fill="url(#color-3)" fill-rule="nonzero" stroke="none" stroke-width="1" stroke-linecap="butt" stroke-linejoin="miter" stroke-miterlimit="10" stroke-dasharray="" stroke-dashoffset="0" font-family="Serif" font-weight="normal" text-anchor="start" style="mix-blend-mode: normal"><tspan x="0" dy="0">random biomes</tspan></text><path d="M12.5,46v-38h48v38z" fill="#ffffff" stroke="#330038" stroke-width="1" stroke-linecap="butt"/><path d="M8.75,58.25l3.75,-12.25h48l7.75,12z" fill="none" stroke="#330038" stroke-width="1" stroke-linecap="butt"/><text transform="translate(10.25,85.70625) scale(0.2971,0.2971)" font-size="40" xml:space="preserve" fill="#330038" fill-rule="nonzero" stroke="none" stroke-width="1" stroke-linecap="butt" stroke-linejoin="miter" stroke-miterlimit="10" stroke-dasharray="" stroke-dashoffset="0" font-family="Serif" font-weight="normal" text-anchor="start" style="mix-blend-mode: normal"><tspan x="0" dy="0">best on computer</tspan></text><path d="M385,58.06149v-43.5h59v43.5z" fill="url(#color-4)" stroke="#30004d" stroke-width="2" stroke-linecap="butt"/><path d="M393.5758,42.88592c0.23319,-0.57442 0.9242,-0.57442 0.9242,-0.57442l0.05279,0.10557c2.44529,-1.20781 5.74718,-1.35184 8.44721,-1.35557c0.55791,0 2.92134,-0.35089 3.26693,-0.21371c3.27487,1.29987 0.63277,3.33904 -0.114,4.89349c-0.39787,0.82819 -0.61219,1.85545 -1.34979,2.40331c-3.65344,2.71366 -8.8244,-1.38315 -11.44333,-3.56486c0,0 -0.76822,-0.64018 -0.12804,-1.40841c0.11234,-0.13481 0.22863,-0.22625 0.34402,-0.28539z" fill="#000000" stroke="none" stroke-width="0.5" stroke-linecap="butt"/><path d="M397.49254,33.28164c-0.97014,0.24254 -1.21268,-0.72761 -1.21268,-0.72761l-0.21774,-0.89559c-0.67607,-1.41082 -0.99828,-3.00092 -1.5108,-4.53072c0,0 -0.31623,-0.94868 0.63246,-1.26491c0.94868,-0.31623 1.26491,0.63246 1.26491,0.63246c0.48634,1.46718 0.79802,3.15604 1.4892,4.46928l0.28226,1.10441c0,0 0.24254,0.97014 -0.72761,1.21268z" fill="#000000" stroke="none" stroke-width="0.5" stroke-linecap="butt"/><path d="M401.44721,30.20592c-0.89443,0.44721 -1.34164,-0.44721 -1.34164,-0.44721l-0.35557,-0.94721c0.00504,-0.59038 -0.07223,-1.18589 -0.22014,-1.75746c0,0 -0.24254,-0.97014 0.72761,-1.21268c0.97014,-0.24254 1.21268,0.72761 1.21268,0.72761c0.17795,0.73199 0.27483,1.48924 0.27986,2.24254l0.14443,0.05279c0,0 0.44721,0.89443 -0.44721,1.34164z" fill="#000000" stroke="none" stroke-width="0.5" stroke-linecap="butt"/><path d="M376.63417,55.26806l-12.5,8" fill="none" stroke="#330038" stroke-width="2" stroke-linecap="round"/><text transform="translate(333.13417,75.31257) scale(0.27388,0.27388)" font-size="40" xml:space="preserve" fill="#330038" fill-rule="nonzero" stroke="none" stroke-width="1" stroke-linecap="butt" stroke-linejoin="miter" stroke-miterlimit="10" stroke-dasharray="" stroke-dashoffset="0" font-family="Serif" font-weight="normal" text-anchor="start" style="mix-blend-mode: normal"><tspan x="0" dy="0">I'm a man</tspan><tspan x="0" dy="46.150000000000006px">with a plan</tspan></text><path d="M8,355.5v-26h38.75v26z" fill="none" stroke="#330038" stroke-width="1" stroke-linecap="butt"/><path d="M44,343.5c0,1.38071 -1.17525,2.5 -2.625,2.5c-1.44974,0 -2.625,-1.11929 -2.625,-2.5c0,-1.38071 1.17526,-2.5 2.625,-2.5c1.44975,0 2.625,1.11929 2.625,2.5z" fill="none" stroke="#330038" stroke-width="1" stroke-linecap="butt"/><text transform="translate(3.5,317.59216) scale(0.23199,0.23199)" font-size="40" xml:space="preserve" fill="#330038" fill-rule="nonzero" stroke="none" stroke-width="1" stroke-linecap="butt" stroke-linejoin="miter" stroke-miterlimit="10" stroke-dasharray="" stroke-dashoffset="0" font-family="Serif" font-weight="normal" text-anchor="start" style="mix-blend-mode: normal"><tspan x="0" dy="0">Availible on mobile</tspan></text></g></g></svg>